<mxfile host="app.diagrams.net" modified="2023-06-05T12:23:15.380Z" agent="Mozilla/5.0 (Windows NT 10.0; Win64; x64; rv:109.0) Gecko/20100101 Firefox/113.0" etag="lL9o9lkLTR53QWwsIYf3" version="21.3.4" type="device">
  <diagram name="Page-1" id="c4S2D4guLHL56aYuTjdg">
    <mxGraphModel dx="1867" dy="1173" grid="1" gridSize="10" guides="1" tooltips="1" connect="1" arrows="1" fold="1" page="1" pageScale="1" pageWidth="827" pageHeight="1169" math="0" shadow="0">
      <root>
        <mxCell id="0" />
        <mxCell id="1" parent="0" />
        <mxCell id="8zPGC6kLLm4aPPDFNiIK-1" value="&lt;div&gt;Home&lt;/div&gt;" style="rounded=0;whiteSpace=wrap;html=1;fillColor=#ffe6cc;strokeColor=#d79b00;" parent="1" vertex="1">
          <mxGeometry x="1500" y="250" width="120" height="60" as="geometry" />
        </mxCell>
        <mxCell id="8zPGC6kLLm4aPPDFNiIK-9" value="" style="endArrow=classic;html=1;rounded=0;edgeStyle=orthogonalEdgeStyle;" parent="1" source="NcC6NG_0m3Hqj47DifXg-2" target="8zPGC6kLLm4aPPDFNiIK-15" edge="1">
          <mxGeometry width="50" height="50" relative="1" as="geometry">
            <mxPoint x="1360" y="290" as="sourcePoint" />
            <mxPoint x="1210" y="370" as="targetPoint" />
            <Array as="points">
              <mxPoint x="1130" y="260" />
            </Array>
          </mxGeometry>
        </mxCell>
        <mxCell id="8zPGC6kLLm4aPPDFNiIK-10" value="" style="endArrow=classic;html=1;rounded=0;edgeStyle=orthogonalEdgeStyle;" parent="1" source="NcC6NG_0m3Hqj47DifXg-5" target="8zPGC6kLLm4aPPDFNiIK-14" edge="1">
          <mxGeometry width="50" height="50" relative="1" as="geometry">
            <mxPoint x="1370" y="300" as="sourcePoint" />
            <mxPoint x="1410" y="370" as="targetPoint" />
            <Array as="points">
              <mxPoint x="1250" y="300" />
            </Array>
          </mxGeometry>
        </mxCell>
        <mxCell id="8zPGC6kLLm4aPPDFNiIK-11" value="" style="endArrow=classic;html=1;rounded=0;edgeStyle=orthogonalEdgeStyle;" parent="1" source="NcC6NG_0m3Hqj47DifXg-7" target="8zPGC6kLLm4aPPDFNiIK-16" edge="1">
          <mxGeometry width="50" height="50" relative="1" as="geometry">
            <mxPoint x="1396" y="320" as="sourcePoint" />
            <mxPoint x="1610" y="370" as="targetPoint" />
            <Array as="points">
              <mxPoint x="1430" y="280" />
              <mxPoint x="1050" y="280" />
            </Array>
          </mxGeometry>
        </mxCell>
        <mxCell id="8zPGC6kLLm4aPPDFNiIK-14" value="&lt;div&gt;Elenco offerte&lt;/div&gt;&lt;div&gt;&amp;lt;AZIENDA&amp;gt;&lt;/div&gt;" style="rounded=0;whiteSpace=wrap;html=1;fillColor=#ffe6cc;strokeColor=#d79b00;" parent="1" vertex="1">
          <mxGeometry x="1190" y="420" width="120" height="60" as="geometry" />
        </mxCell>
        <mxCell id="8zPGC6kLLm4aPPDFNiIK-15" value="&lt;div&gt;Elenco offerte&lt;/div&gt;&lt;div&gt;&amp;lt;CHIAVE&amp;gt;&lt;/div&gt;" style="rounded=0;whiteSpace=wrap;html=1;fillColor=#ffe6cc;strokeColor=#d79b00;" parent="1" vertex="1">
          <mxGeometry x="1059.97" y="620" width="120" height="60" as="geometry" />
        </mxCell>
        <mxCell id="8zPGC6kLLm4aPPDFNiIK-16" value="Lista aziende" style="rounded=0;whiteSpace=wrap;html=1;fillColor=#ffe6cc;strokeColor=#d79b00;" parent="1" vertex="1">
          <mxGeometry x="990" y="320" width="120" height="60" as="geometry" />
        </mxCell>
        <mxCell id="8zPGC6kLLm4aPPDFNiIK-17" value="&lt;div&gt;Pagina azienda&lt;/div&gt;&lt;div&gt;(con lista offerte)&lt;br&gt;&lt;/div&gt;" style="rounded=0;whiteSpace=wrap;html=1;fillColor=#ffe6cc;strokeColor=#d79b00;" parent="1" vertex="1">
          <mxGeometry x="990" y="442.5" width="120" height="60" as="geometry" />
        </mxCell>
        <mxCell id="8zPGC6kLLm4aPPDFNiIK-18" value="&lt;div&gt;Pagina Offerta&lt;/div&gt;&lt;div&gt;&amp;nbsp;(solo se profilo LV.1 puÃ² acquisire)&lt;/div&gt;" style="rounded=0;whiteSpace=wrap;html=1;fillColor=#ffe6cc;strokeColor=#d79b00;" parent="1" vertex="1">
          <mxGeometry x="1179.97" y="711.48" width="120" height="60" as="geometry" />
        </mxCell>
        <mxCell id="8zPGC6kLLm4aPPDFNiIK-19" value="&lt;div&gt;Schermata LogIn&lt;/div&gt;" style="rounded=0;whiteSpace=wrap;html=1;fillColor=#fff2cc;strokeColor=#d6b656;" parent="1" vertex="1">
          <mxGeometry x="1330" y="445" width="120" height="60" as="geometry" />
        </mxCell>
        <mxCell id="8zPGC6kLLm4aPPDFNiIK-20" value="&lt;div&gt;Elenco FAQ&lt;/div&gt;" style="rounded=0;whiteSpace=wrap;html=1;fillColor=#ffe6cc;strokeColor=#d79b00;" parent="1" vertex="1">
          <mxGeometry x="1792" y="310" width="120" height="60" as="geometry" />
        </mxCell>
        <mxCell id="8zPGC6kLLm4aPPDFNiIK-23" value="" style="endArrow=classic;html=1;rounded=0;edgeStyle=orthogonalEdgeStyle;" parent="1" source="NcC6NG_0m3Hqj47DifXg-137" target="8zPGC6kLLm4aPPDFNiIK-18" edge="1">
          <mxGeometry width="50" height="50" relative="1" as="geometry">
            <mxPoint x="1510" y="660" as="sourcePoint" />
            <mxPoint x="1560" y="610" as="targetPoint" />
            <Array as="points">
              <mxPoint x="1120" y="740" />
            </Array>
          </mxGeometry>
        </mxCell>
        <mxCell id="8zPGC6kLLm4aPPDFNiIK-27" value="Schermata registrazione" style="rounded=0;whiteSpace=wrap;html=1;fillColor=#fff2cc;strokeColor=#d6b656;" parent="1" vertex="1">
          <mxGeometry x="1330" y="570" width="120" height="60" as="geometry" />
        </mxCell>
        <mxCell id="8zPGC6kLLm4aPPDFNiIK-29" value="" style="endArrow=classic;html=1;rounded=0;edgeStyle=orthogonalEdgeStyle;" parent="1" source="NcC6NG_0m3Hqj47DifXg-22" target="8zPGC6kLLm4aPPDFNiIK-27" edge="1">
          <mxGeometry width="50" height="50" relative="1" as="geometry">
            <mxPoint x="1550" y="515" as="sourcePoint" />
            <mxPoint x="1670" y="575" as="targetPoint" />
            <Array as="points">
              <mxPoint x="1390" y="555" />
              <mxPoint x="1390" y="555" />
            </Array>
          </mxGeometry>
        </mxCell>
        <mxCell id="8zPGC6kLLm4aPPDFNiIK-30" value="" style="endArrow=classic;html=1;rounded=0;edgeStyle=orthogonalEdgeStyle;" parent="1" source="NcC6NG_0m3Hqj47DifXg-34" target="8zPGC6kLLm4aPPDFNiIK-26" edge="1">
          <mxGeometry width="50" height="50" relative="1" as="geometry">
            <mxPoint x="1170" y="585" as="sourcePoint" />
            <mxPoint x="1580" y="755" as="targetPoint" />
            <Array as="points">
              <mxPoint x="1423" y="680" />
              <mxPoint x="1423" y="680" />
            </Array>
          </mxGeometry>
        </mxCell>
        <mxCell id="8zPGC6kLLm4aPPDFNiIK-32" value="" style="endArrow=classic;html=1;rounded=0;edgeStyle=orthogonalEdgeStyle;" parent="1" source="NcC6NG_0m3Hqj47DifXg-38" target="8zPGC6kLLm4aPPDFNiIK-18" edge="1">
          <mxGeometry width="50" height="50" relative="1" as="geometry">
            <mxPoint x="1510" y="730" as="sourcePoint" />
            <mxPoint x="1560" y="680" as="targetPoint" />
            <Array as="points">
              <mxPoint x="1250" y="690" />
              <mxPoint x="1250" y="690" />
            </Array>
          </mxGeometry>
        </mxCell>
        <mxCell id="8zPGC6kLLm4aPPDFNiIK-35" value="" style="endArrow=classic;html=1;rounded=0;edgeStyle=orthogonalEdgeStyle;" parent="1" source="NcC6NG_0m3Hqj47DifXg-133" target="8zPGC6kLLm4aPPDFNiIK-18" edge="1">
          <mxGeometry width="50" height="50" relative="1" as="geometry">
            <mxPoint x="1520" y="630" as="sourcePoint" />
            <mxPoint x="1570" y="580" as="targetPoint" />
            <Array as="points">
              <mxPoint x="1210" y="540" />
            </Array>
          </mxGeometry>
        </mxCell>
        <mxCell id="NcC6NG_0m3Hqj47DifXg-3" value="" style="endArrow=none;html=1;rounded=0;edgeStyle=orthogonalEdgeStyle;" parent="1" source="8zPGC6kLLm4aPPDFNiIK-1" target="NcC6NG_0m3Hqj47DifXg-2" edge="1">
          <mxGeometry width="50" height="50" relative="1" as="geometry">
            <mxPoint x="1500" y="280" as="sourcePoint" />
            <mxPoint x="1210" y="370" as="targetPoint" />
            <Array as="points">
              <mxPoint x="1245" y="260" />
            </Array>
          </mxGeometry>
        </mxCell>
        <mxCell id="NcC6NG_0m3Hqj47DifXg-2" value="Cerca" style="text;strokeColor=none;fillColor=none;align=left;verticalAlign=middle;spacingLeft=4;spacingRight=4;overflow=hidden;points=[[0,0.5],[1,0.5]];portConstraint=eastwest;rotatable=0;whiteSpace=wrap;html=1;fontColor=#0080FF;" parent="1" vertex="1">
          <mxGeometry x="1160" y="250" width="50" height="20" as="geometry" />
        </mxCell>
        <mxCell id="NcC6NG_0m3Hqj47DifXg-1" value="&lt;div&gt;Categorie&lt;/div&gt;" style="text;strokeColor=none;fillColor=none;align=left;verticalAlign=middle;spacingLeft=4;spacingRight=4;overflow=hidden;points=[[0,0.5],[1,0.5]];portConstraint=eastwest;rotatable=0;whiteSpace=wrap;html=1;fontColor=#0080ff;" parent="1" vertex="1">
          <mxGeometry x="877.5" y="380" width="65" height="20" as="geometry" />
        </mxCell>
        <mxCell id="NcC6NG_0m3Hqj47DifXg-6" value="" style="endArrow=none;html=1;rounded=0;edgeStyle=orthogonalEdgeStyle;" parent="1" source="8zPGC6kLLm4aPPDFNiIK-1" target="NcC6NG_0m3Hqj47DifXg-5" edge="1">
          <mxGeometry width="50" height="50" relative="1" as="geometry">
            <mxPoint x="1500" y="280" as="sourcePoint" />
            <mxPoint x="1410" y="370" as="targetPoint" />
            <Array as="points">
              <mxPoint x="1430" y="300" />
              <mxPoint x="1430" y="300" />
            </Array>
          </mxGeometry>
        </mxCell>
        <mxCell id="NcC6NG_0m3Hqj47DifXg-5" value="&lt;div&gt;Tutte le Offerte&lt;/div&gt;" style="text;strokeColor=none;fillColor=none;align=left;verticalAlign=middle;spacingLeft=4;spacingRight=4;overflow=hidden;points=[[0,0.5],[1,0.5]];portConstraint=eastwest;rotatable=0;whiteSpace=wrap;html=1;fontColor=#0080ff;" parent="1" vertex="1">
          <mxGeometry x="1320" y="287.5" width="90" height="15" as="geometry" />
        </mxCell>
        <mxCell id="NcC6NG_0m3Hqj47DifXg-7" value="&lt;div&gt;Aziende&lt;/div&gt;" style="text;strokeColor=none;fillColor=none;align=left;verticalAlign=middle;spacingLeft=4;spacingRight=4;overflow=hidden;points=[[0,0.5],[1,0.5]];portConstraint=eastwest;rotatable=0;whiteSpace=wrap;html=1;fontColor=#0080FF;" parent="1" vertex="1">
          <mxGeometry x="1400" y="272.5" width="60" height="15" as="geometry" />
        </mxCell>
        <mxCell id="NcC6NG_0m3Hqj47DifXg-9" value="" style="endArrow=none;html=1;rounded=0;edgeStyle=orthogonalEdgeStyle;" parent="1" source="8zPGC6kLLm4aPPDFNiIK-1" target="NcC6NG_0m3Hqj47DifXg-7" edge="1">
          <mxGeometry width="50" height="50" relative="1" as="geometry">
            <mxPoint x="1680" y="385" as="sourcePoint" />
            <mxPoint x="1620" y="480" as="targetPoint" />
            <Array as="points">
              <mxPoint x="1490" y="280" />
              <mxPoint x="1490" y="280" />
            </Array>
          </mxGeometry>
        </mxCell>
        <mxCell id="NcC6NG_0m3Hqj47DifXg-10" value="&lt;div&gt;Account&lt;/div&gt;" style="text;strokeColor=none;fillColor=none;align=left;verticalAlign=middle;spacingLeft=4;spacingRight=4;overflow=hidden;points=[[0,0.5],[1,0.5]];portConstraint=eastwest;rotatable=0;whiteSpace=wrap;html=1;fontColor=#0080FF;" parent="1" vertex="1">
          <mxGeometry x="1563" y="340" width="60" height="20" as="geometry" />
        </mxCell>
        <mxCell id="NcC6NG_0m3Hqj47DifXg-12" value="" style="endArrow=classic;html=1;rounded=0;edgeStyle=orthogonalEdgeStyle;" parent="1" source="NcC6NG_0m3Hqj47DifXg-18" target="8zPGC6kLLm4aPPDFNiIK-19" edge="1">
          <mxGeometry width="50" height="50" relative="1" as="geometry">
            <mxPoint x="1460" y="325" as="sourcePoint" />
            <mxPoint x="1680" y="325" as="targetPoint" />
            <Array as="points">
              <mxPoint x="1423" y="350" />
            </Array>
          </mxGeometry>
        </mxCell>
        <mxCell id="NcC6NG_0m3Hqj47DifXg-13" value="FAQ" style="text;strokeColor=none;fillColor=none;align=left;verticalAlign=middle;spacingLeft=4;spacingRight=4;overflow=hidden;points=[[0,0.5],[1,0.5]];portConstraint=eastwest;rotatable=0;whiteSpace=wrap;html=1;fontColor=#0080FF;" parent="1" vertex="1">
          <mxGeometry x="1668.49" y="270" width="40" height="20" as="geometry" />
        </mxCell>
        <mxCell id="NcC6NG_0m3Hqj47DifXg-14" value="&lt;div&gt;Elenco Categorie&lt;/div&gt;" style="rounded=0;whiteSpace=wrap;html=1;fillColor=#fff2cc;strokeColor=#d6b656;" parent="1" vertex="1">
          <mxGeometry x="850" y="442.5" width="120" height="60" as="geometry" />
        </mxCell>
        <mxCell id="NcC6NG_0m3Hqj47DifXg-17" value="" style="endArrow=none;html=1;rounded=0;edgeStyle=orthogonalEdgeStyle;" parent="1" source="NcC6NG_0m3Hqj47DifXg-10" target="NcC6NG_0m3Hqj47DifXg-16" edge="1">
          <mxGeometry width="50" height="50" relative="1" as="geometry">
            <mxPoint x="1560" y="350" as="sourcePoint" />
            <mxPoint x="1660" y="565" as="targetPoint" />
            <Array as="points" />
          </mxGeometry>
        </mxCell>
        <mxCell id="NcC6NG_0m3Hqj47DifXg-16" value="Ã giÃ  loggato?" style="text;strokeColor=none;fillColor=none;align=left;verticalAlign=middle;spacingLeft=4;spacingRight=4;overflow=hidden;points=[[0,0.5],[1,0.5]];portConstraint=eastwest;rotatable=0;whiteSpace=wrap;html=1;fontColor=#FF0808;" parent="1" vertex="1">
          <mxGeometry x="1680" y="340" width="90" height="20" as="geometry" />
        </mxCell>
        <mxCell id="NcC6NG_0m3Hqj47DifXg-19" value="" style="endArrow=none;html=1;rounded=0;edgeStyle=orthogonalEdgeStyle;" parent="1" source="NcC6NG_0m3Hqj47DifXg-10" target="NcC6NG_0m3Hqj47DifXg-18" edge="1">
          <mxGeometry width="50" height="50" relative="1" as="geometry">
            <mxPoint x="1500" y="350" as="sourcePoint" />
            <mxPoint x="1420" y="445" as="targetPoint" />
            <Array as="points" />
          </mxGeometry>
        </mxCell>
        <mxCell id="NcC6NG_0m3Hqj47DifXg-18" value="NON Ã¨ loggato?" style="text;strokeColor=none;fillColor=none;align=left;verticalAlign=middle;spacingLeft=4;spacingRight=4;overflow=hidden;points=[[0,0.5],[1,0.5]];portConstraint=eastwest;rotatable=0;whiteSpace=wrap;html=1;fontColor=#FF0808;" parent="1" vertex="1">
          <mxGeometry x="1432.5" y="340" width="100" height="20" as="geometry" />
        </mxCell>
        <mxCell id="NcC6NG_0m3Hqj47DifXg-23" value="" style="endArrow=none;html=1;rounded=0;edgeStyle=orthogonalEdgeStyle;" parent="1" source="8zPGC6kLLm4aPPDFNiIK-19" target="NcC6NG_0m3Hqj47DifXg-22" edge="1">
          <mxGeometry width="50" height="50" relative="1" as="geometry">
            <mxPoint x="1420" y="505" as="sourcePoint" />
            <mxPoint x="1420" y="565" as="targetPoint" />
            <Array as="points">
              <mxPoint x="1390" y="535" />
              <mxPoint x="1390" y="535" />
            </Array>
          </mxGeometry>
        </mxCell>
        <mxCell id="NcC6NG_0m3Hqj47DifXg-22" value="&lt;font color=&quot;#0080ff&quot;&gt;NON sei registrato?&lt;/font&gt;" style="text;strokeColor=none;fillColor=none;align=left;verticalAlign=middle;spacingLeft=4;spacingRight=4;overflow=hidden;points=[[0,0.5],[1,0.5]];portConstraint=eastwest;rotatable=0;whiteSpace=wrap;html=1;fontColor=#FF0808;" parent="1" vertex="1">
          <mxGeometry x="1330" y="525" width="125" height="20" as="geometry" />
        </mxCell>
        <mxCell id="NcC6NG_0m3Hqj47DifXg-28" value="" style="endArrow=none;html=1;rounded=0;edgeStyle=orthogonalEdgeStyle;" parent="1" source="8zPGC6kLLm4aPPDFNiIK-19" target="NcC6NG_0m3Hqj47DifXg-27" edge="1">
          <mxGeometry width="50" height="50" relative="1" as="geometry">
            <mxPoint x="1480" y="475" as="sourcePoint" />
            <mxPoint x="1680" y="625" as="targetPoint" />
            <Array as="points">
              <mxPoint x="1483" y="475" />
              <mxPoint x="1483" y="560" />
            </Array>
          </mxGeometry>
        </mxCell>
        <mxCell id="NcC6NG_0m3Hqj47DifXg-27" value="&lt;div&gt;Credenziali &lt;br&gt;&lt;/div&gt;&lt;div&gt;corrette?&lt;/div&gt;" style="text;strokeColor=none;fillColor=none;align=left;verticalAlign=middle;spacingLeft=4;spacingRight=4;overflow=hidden;points=[[0,0.5],[1,0.5]];portConstraint=eastwest;rotatable=0;whiteSpace=wrap;html=1;fontColor=#FF0808;" parent="1" vertex="1">
          <mxGeometry x="1503" y="542.5" width="73" height="32.5" as="geometry" />
        </mxCell>
        <mxCell id="NcC6NG_0m3Hqj47DifXg-31" value="&lt;div&gt;Credenziali&lt;/div&gt;&lt;div&gt;&amp;nbsp;errate?&lt;/div&gt;" style="text;strokeColor=none;fillColor=none;align=left;verticalAlign=middle;spacingLeft=4;spacingRight=4;overflow=hidden;points=[[0,0.5],[1,0.5]];portConstraint=eastwest;rotatable=0;whiteSpace=wrap;html=1;fontColor=#FF0808;" parent="1" vertex="1">
          <mxGeometry x="1347" y="380" width="73" height="32.5" as="geometry" />
        </mxCell>
        <mxCell id="NcC6NG_0m3Hqj47DifXg-34" value="&lt;div&gt;Registrati&lt;/div&gt;" style="text;strokeColor=none;fillColor=none;align=left;verticalAlign=middle;spacingLeft=4;spacingRight=4;overflow=hidden;points=[[0,0.5],[1,0.5]];portConstraint=eastwest;rotatable=0;whiteSpace=wrap;html=1;fontColor=#0080FF;" parent="1" vertex="1">
          <mxGeometry x="1355" y="665" width="70" height="25" as="geometry" />
        </mxCell>
        <mxCell id="NcC6NG_0m3Hqj47DifXg-36" value="&lt;div&gt;&lt;font color=&quot;#0080ff&quot;&gt;Azienda&lt;/font&gt;&lt;/div&gt;" style="text;strokeColor=none;fillColor=none;align=left;verticalAlign=middle;spacingLeft=4;spacingRight=4;overflow=hidden;points=[[0,0.5],[1,0.5]];portConstraint=eastwest;rotatable=0;whiteSpace=wrap;html=1;" parent="1" vertex="1">
          <mxGeometry x="990" y="400" width="55" height="20" as="geometry" />
        </mxCell>
        <mxCell id="NcC6NG_0m3Hqj47DifXg-39" value="" style="endArrow=none;html=1;rounded=0;edgeStyle=orthogonalEdgeStyle;" parent="1" source="8zPGC6kLLm4aPPDFNiIK-14" target="NcC6NG_0m3Hqj47DifXg-38" edge="1">
          <mxGeometry width="50" height="50" relative="1" as="geometry">
            <mxPoint x="1340" y="480" as="sourcePoint" />
            <mxPoint x="1260" y="610" as="targetPoint" />
            <Array as="points">
              <mxPoint x="1250" y="480" />
            </Array>
          </mxGeometry>
        </mxCell>
        <mxCell id="NcC6NG_0m3Hqj47DifXg-38" value="&lt;font color=&quot;#0080ff&quot;&gt;Offerta&lt;/font&gt;" style="text;strokeColor=none;fillColor=none;align=left;verticalAlign=middle;spacingLeft=4;spacingRight=4;overflow=hidden;points=[[0,0.5],[1,0.5]];portConstraint=eastwest;rotatable=0;whiteSpace=wrap;html=1;" parent="1" vertex="1">
          <mxGeometry x="1220" y="640" width="60" height="20" as="geometry" />
        </mxCell>
        <mxCell id="NcC6NG_0m3Hqj47DifXg-86" value="" style="edgeStyle=segmentEdgeStyle;endArrow=classic;html=1;curved=0;rounded=0;endSize=8;startSize=8;sourcePerimeterSpacing=0;targetPerimeterSpacing=0;" parent="1" target="NcC6NG_0m3Hqj47DifXg-85" edge="1">
          <mxGeometry width="100" relative="1" as="geometry">
            <mxPoint x="1160" y="490" as="sourcePoint" />
            <mxPoint x="1200" y="510" as="targetPoint" />
            <Array as="points">
              <mxPoint x="1160" y="490" />
              <mxPoint x="1160" y="490" />
            </Array>
          </mxGeometry>
        </mxCell>
        <mxCell id="NcC6NG_0m3Hqj47DifXg-92" value="" style="edgeStyle=segmentEdgeStyle;endArrow=none;html=1;curved=0;rounded=0;endSize=8;startSize=8;sourcePerimeterSpacing=0;targetPerimeterSpacing=0;" parent="1" target="NcC6NG_0m3Hqj47DifXg-91" edge="1">
          <mxGeometry width="100" relative="1" as="geometry">
            <mxPoint x="1160" y="440" as="sourcePoint" />
            <mxPoint x="1160" y="520" as="targetPoint" />
            <Array as="points" />
          </mxGeometry>
        </mxCell>
        <mxCell id="NcC6NG_0m3Hqj47DifXg-134" value="" style="endArrow=none;html=1;rounded=0;edgeStyle=orthogonalEdgeStyle;" parent="1" source="8zPGC6kLLm4aPPDFNiIK-17" target="NcC6NG_0m3Hqj47DifXg-133" edge="1">
          <mxGeometry width="50" height="50" relative="1" as="geometry">
            <mxPoint x="1510" y="640" as="sourcePoint" />
            <mxPoint x="1270" y="640" as="targetPoint" />
            <Array as="points">
              <mxPoint x="1020" y="540" />
              <mxPoint x="1075" y="540" />
            </Array>
          </mxGeometry>
        </mxCell>
        <mxCell id="NcC6NG_0m3Hqj47DifXg-133" value="&lt;font color=&quot;#0080ff&quot;&gt;Offerta&lt;/font&gt;" style="text;strokeColor=none;fillColor=none;align=left;verticalAlign=middle;spacingLeft=4;spacingRight=4;overflow=hidden;points=[[0,0.5],[1,0.5]];portConstraint=eastwest;rotatable=0;whiteSpace=wrap;html=1;" parent="1" vertex="1">
          <mxGeometry x="1045" y="525" width="50" height="30" as="geometry" />
        </mxCell>
        <mxCell id="NcC6NG_0m3Hqj47DifXg-135" value="&lt;div&gt;Categoria&lt;/div&gt;" style="text;strokeColor=none;fillColor=none;align=left;verticalAlign=middle;spacingLeft=4;spacingRight=4;overflow=hidden;points=[[0,0.5],[1,0.5]];portConstraint=eastwest;rotatable=0;whiteSpace=wrap;html=1;fontColor=#0080ff;" parent="1" vertex="1">
          <mxGeometry x="875" y="540" width="70" height="20" as="geometry" />
        </mxCell>
        <mxCell id="NcC6NG_0m3Hqj47DifXg-138" value="" style="endArrow=none;html=1;rounded=0;edgeStyle=orthogonalEdgeStyle;" parent="1" source="8zPGC6kLLm4aPPDFNiIK-15" target="NcC6NG_0m3Hqj47DifXg-137" edge="1">
          <mxGeometry width="50" height="50" relative="1" as="geometry">
            <mxPoint x="1080" y="640" as="sourcePoint" />
            <mxPoint x="1140" y="720" as="targetPoint" />
            <Array as="points">
              <mxPoint x="1080" y="680" />
              <mxPoint x="1080" y="680" />
            </Array>
          </mxGeometry>
        </mxCell>
        <mxCell id="NcC6NG_0m3Hqj47DifXg-137" value="&lt;font color=&quot;#0080ff&quot;&gt;Offerta&lt;/font&gt;" style="text;strokeColor=none;fillColor=none;align=left;verticalAlign=middle;spacingLeft=4;spacingRight=4;overflow=hidden;points=[[0,0.5],[1,0.5]];portConstraint=eastwest;rotatable=0;whiteSpace=wrap;html=1;" parent="1" vertex="1">
          <mxGeometry x="1089.97" y="690" width="60" height="20" as="geometry" />
        </mxCell>
        <mxCell id="NU3KpsRYySIQvtl1-evu-1" value="&lt;font color=&quot;#0080ff&quot;&gt;Acquisisci&lt;/font&gt;" style="text;strokeColor=none;fillColor=none;align=left;verticalAlign=middle;spacingLeft=4;spacingRight=4;overflow=hidden;points=[[0,0.5],[1,0.5]];portConstraint=eastwest;rotatable=0;whiteSpace=wrap;html=1;" parent="1" vertex="1">
          <mxGeometry x="1206" y="776.24" width="70" height="22.5" as="geometry" />
        </mxCell>
        <mxCell id="NU3KpsRYySIQvtl1-evu-2" value="" style="edgeStyle=segmentEdgeStyle;endArrow=none;html=1;curved=0;rounded=0;endSize=8;startSize=8;sourcePerimeterSpacing=0;targetPerimeterSpacing=0;" parent="1" source="8zPGC6kLLm4aPPDFNiIK-18" target="NU3KpsRYySIQvtl1-evu-1" edge="1">
          <mxGeometry width="100" relative="1" as="geometry">
            <mxPoint x="1139.97" y="791.48" as="sourcePoint" />
            <mxPoint x="1239.97" y="831.48" as="targetPoint" />
            <Array as="points">
              <mxPoint x="1160" y="761" />
              <mxPoint x="1160" y="790" />
            </Array>
          </mxGeometry>
        </mxCell>
        <mxCell id="NU3KpsRYySIQvtl1-evu-4" value="" style="edgeStyle=segmentEdgeStyle;endArrow=classic;html=1;curved=0;rounded=0;endSize=8;startSize=8;sourcePerimeterSpacing=0;targetPerimeterSpacing=0;" parent="1" source="NU3KpsRYySIQvtl1-evu-1" target="8zPGC6kLLm4aPPDFNiIK-18" edge="1">
          <mxGeometry width="100" relative="1" as="geometry">
            <mxPoint x="1249.97" y="791.48" as="sourcePoint" />
            <mxPoint x="1349.97" y="831.48" as="targetPoint" />
            <Array as="points">
              <mxPoint x="1320" y="790" />
              <mxPoint x="1320" y="761" />
            </Array>
          </mxGeometry>
        </mxCell>
        <mxCell id="NcC6NG_0m3Hqj47DifXg-50" value="&lt;div&gt;Profilo LV. 3&lt;br&gt;&lt;/div&gt;" style="rounded=0;whiteSpace=wrap;html=1;fillColor=#ffe6cc;strokeColor=#d79b00;" parent="1" vertex="1">
          <mxGeometry x="1849" y="380" width="120" height="60" as="geometry" />
        </mxCell>
        <mxCell id="NcC6NG_0m3Hqj47DifXg-51" value="&lt;div&gt;Tabella Utenti&lt;/div&gt;" style="rounded=0;whiteSpace=wrap;html=1;fillColor=#ffe6cc;strokeColor=#d79b00;" parent="1" vertex="1">
          <mxGeometry x="1736" y="490.95000000000005" width="120" height="60" as="geometry" />
        </mxCell>
        <mxCell id="NcC6NG_0m3Hqj47DifXg-66" value="" style="endArrow=classic;html=1;rounded=0;edgeStyle=orthogonalEdgeStyle;" parent="1" source="NcC6NG_0m3Hqj47DifXg-68" target="NcC6NG_0m3Hqj47DifXg-51" edge="1">
          <mxGeometry width="50" height="50" relative="1" as="geometry">
            <mxPoint x="1757.02" y="650.97" as="sourcePoint" />
            <mxPoint x="1808" y="650.97" as="targetPoint" />
            <Array as="points">
              <mxPoint x="1908" y="466.01" />
              <mxPoint x="1828" y="466.01" />
            </Array>
          </mxGeometry>
        </mxCell>
        <mxCell id="NcC6NG_0m3Hqj47DifXg-68" value="Cancella" style="text;strokeColor=none;fillColor=none;align=left;verticalAlign=middle;spacingLeft=4;spacingRight=4;overflow=hidden;points=[[0,0.5],[1,0.5]];portConstraint=eastwest;rotatable=0;whiteSpace=wrap;html=1;fontColor=#0080FF;" parent="1" vertex="1">
          <mxGeometry x="1879" y="490.95000000000005" width="60" height="30" as="geometry" />
        </mxCell>
        <mxCell id="NcC6NG_0m3Hqj47DifXg-119" value="Tabella Aziende" style="rounded=0;whiteSpace=wrap;html=1;fillColor=#ffe6cc;strokeColor=#d79b00;" parent="1" vertex="1">
          <mxGeometry x="2181.9700000000003" y="490.98" width="120" height="60" as="geometry" />
        </mxCell>
        <mxCell id="NcC6NG_0m3Hqj47DifXg-120" value="Aziende" style="text;strokeColor=none;fillColor=none;align=left;verticalAlign=middle;spacingLeft=4;spacingRight=4;overflow=hidden;points=[[0,0.5],[1,0.5]];portConstraint=eastwest;rotatable=0;whiteSpace=wrap;html=1;fontColor=#0080FF;" parent="1" vertex="1">
          <mxGeometry x="2211.9700000000003" y="443.48" width="60" height="19" as="geometry" />
        </mxCell>
        <mxCell id="NcC6NG_0m3Hqj47DifXg-121" value="" style="edgeStyle=segmentEdgeStyle;endArrow=classic;html=1;curved=0;rounded=0;endSize=8;startSize=8;sourcePerimeterSpacing=0;targetPerimeterSpacing=0;" parent="1" source="NcC6NG_0m3Hqj47DifXg-120" target="NcC6NG_0m3Hqj47DifXg-119" edge="1">
          <mxGeometry width="100" relative="1" as="geometry">
            <mxPoint x="2211.9700000000003" y="499.98" as="sourcePoint" />
            <mxPoint x="2311.9700000000003" y="539.98" as="targetPoint" />
            <Array as="points" />
          </mxGeometry>
        </mxCell>
        <mxCell id="NcC6NG_0m3Hqj47DifXg-122" value="&lt;font color=&quot;#0080ff&quot;&gt;Crea/Modifica/Cancella&lt;/font&gt;" style="text;html=1;align=center;verticalAlign=middle;resizable=0;points=[];autosize=1;strokeColor=none;fillColor=none;" parent="1" vertex="1">
          <mxGeometry x="2166.9700000000003" y="550.98" width="150" height="30" as="geometry" />
        </mxCell>
        <mxCell id="NcC6NG_0m3Hqj47DifXg-123" value="" style="edgeStyle=segmentEdgeStyle;endArrow=none;html=1;curved=0;rounded=0;endSize=8;startSize=8;sourcePerimeterSpacing=0;targetPerimeterSpacing=0;" parent="1" source="NcC6NG_0m3Hqj47DifXg-119" target="NcC6NG_0m3Hqj47DifXg-122" edge="1">
          <mxGeometry width="100" relative="1" as="geometry">
            <mxPoint x="2181.9700000000003" y="564.98" as="sourcePoint" />
            <mxPoint x="2101.9700000000003" y="604.98" as="targetPoint" />
            <Array as="points">
              <mxPoint x="2161" y="521" />
              <mxPoint x="2161" y="566" />
            </Array>
          </mxGeometry>
        </mxCell>
        <mxCell id="NcC6NG_0m3Hqj47DifXg-124" value="" style="edgeStyle=segmentEdgeStyle;endArrow=classic;html=1;curved=0;rounded=0;endSize=8;startSize=8;sourcePerimeterSpacing=0;targetPerimeterSpacing=0;" parent="1" source="NcC6NG_0m3Hqj47DifXg-122" target="NcC6NG_0m3Hqj47DifXg-119" edge="1">
          <mxGeometry width="100" relative="1" as="geometry">
            <mxPoint x="2131.9700000000003" y="694.98" as="sourcePoint" />
            <mxPoint x="2301.9700000000003" y="564.98" as="targetPoint" />
            <Array as="points">
              <mxPoint x="2331" y="566" />
              <mxPoint x="2331" y="523" />
            </Array>
          </mxGeometry>
        </mxCell>
        <mxCell id="NcC6NG_0m3Hqj47DifXg-128" value="" style="edgeStyle=segmentEdgeStyle;endArrow=none;html=1;curved=0;rounded=0;endSize=8;startSize=8;sourcePerimeterSpacing=0;targetPerimeterSpacing=0;" parent="1" source="NcC6NG_0m3Hqj47DifXg-50" target="NU3KpsRYySIQvtl1-evu-36" edge="1">
          <mxGeometry width="100" relative="1" as="geometry">
            <mxPoint x="2069" y="330" as="sourcePoint" />
            <mxPoint x="2668.9999999999995" y="479" as="targetPoint" />
            <Array as="points">
              <mxPoint x="2046" y="420" />
            </Array>
          </mxGeometry>
        </mxCell>
        <mxCell id="NcC6NG_0m3Hqj47DifXg-131" value="&lt;div&gt;Tabella FAQ&lt;/div&gt;" style="rounded=0;whiteSpace=wrap;html=1;fillColor=#ffe6cc;strokeColor=#d79b00;" parent="1" vertex="1">
          <mxGeometry x="1988" y="490.21000000000004" width="120" height="60" as="geometry" />
        </mxCell>
        <mxCell id="NcC6NG_0m3Hqj47DifXg-132" value="" style="edgeStyle=segmentEdgeStyle;endArrow=classic;html=1;curved=0;rounded=0;endSize=8;startSize=8;sourcePerimeterSpacing=0;targetPerimeterSpacing=0;" parent="1" source="NU3KpsRYySIQvtl1-evu-36" target="NcC6NG_0m3Hqj47DifXg-131" edge="1">
          <mxGeometry width="100" relative="1" as="geometry">
            <mxPoint x="2249" y="507.75" as="sourcePoint" />
            <mxPoint x="2319" y="498.75" as="targetPoint" />
            <Array as="points" />
          </mxGeometry>
        </mxCell>
        <mxCell id="8zPGC6kLLm4aPPDFNiIK-26" value="&lt;div&gt;Profilo LV.1&lt;/div&gt;" style="rounded=0;whiteSpace=wrap;html=1;fillColor=#ffe6cc;strokeColor=#d79b00;" parent="1" vertex="1">
          <mxGeometry x="1473" y="656.74" width="120" height="60" as="geometry" />
        </mxCell>
        <mxCell id="NcC6NG_0m3Hqj47DifXg-45" value="&lt;div&gt;Profilo LV. 2&lt;/div&gt;" style="rounded=0;whiteSpace=wrap;html=1;fillColor=#ffe6cc;strokeColor=#d79b00;" parent="1" vertex="1">
          <mxGeometry x="1620" y="656.74" width="120" height="60" as="geometry" />
        </mxCell>
        <mxCell id="NcC6NG_0m3Hqj47DifXg-40" value="&lt;div&gt;Schermata modifica dati&lt;/div&gt;" style="rounded=0;whiteSpace=wrap;html=1;fillColor=#ffe6cc;strokeColor=#d79b00;" parent="1" vertex="1">
          <mxGeometry x="1473" y="807.21" width="120" height="60" as="geometry" />
        </mxCell>
        <mxCell id="NcC6NG_0m3Hqj47DifXg-46" value="&lt;div&gt;Schermata modifica dati&lt;br&gt;&lt;/div&gt;" style="rounded=0;whiteSpace=wrap;html=1;fillColor=#ffe6cc;strokeColor=#d79b00;" parent="1" vertex="1">
          <mxGeometry x="1620" y="776.24" width="120" height="60" as="geometry" />
        </mxCell>
        <mxCell id="NcC6NG_0m3Hqj47DifXg-49" value="Modifica " style="text;strokeColor=none;fillColor=none;align=left;verticalAlign=middle;spacingLeft=4;spacingRight=4;overflow=hidden;points=[[0,0.5],[1,0.5]];portConstraint=eastwest;rotatable=0;whiteSpace=wrap;html=1;fontColor=#0080FF;" parent="1" vertex="1">
          <mxGeometry x="1650" y="739.24" width="60" height="15" as="geometry" />
        </mxCell>
        <mxCell id="NcC6NG_0m3Hqj47DifXg-47" value="" style="endArrow=classic;html=1;rounded=0;edgeStyle=orthogonalEdgeStyle;" parent="1" source="NcC6NG_0m3Hqj47DifXg-49" target="NcC6NG_0m3Hqj47DifXg-46" edge="1">
          <mxGeometry width="50" height="50" relative="1" as="geometry">
            <mxPoint x="1668.94" y="804.74" as="sourcePoint" />
            <mxPoint x="1718.94" y="754.74" as="targetPoint" />
            <Array as="points">
              <mxPoint x="1679.98" y="751.27" />
              <mxPoint x="1679.98" y="751.27" />
            </Array>
          </mxGeometry>
        </mxCell>
        <mxCell id="NcC6NG_0m3Hqj47DifXg-48" value="" style="endArrow=none;html=1;rounded=0;edgeStyle=orthogonalEdgeStyle;" parent="1" source="NcC6NG_0m3Hqj47DifXg-45" target="NcC6NG_0m3Hqj47DifXg-49" edge="1">
          <mxGeometry width="50" height="50" relative="1" as="geometry">
            <mxPoint x="1759.94" y="749.74" as="sourcePoint" />
            <mxPoint x="1859.94" y="854.74" as="targetPoint" />
            <Array as="points">
              <mxPoint x="1680" y="739.24" />
              <mxPoint x="1680" y="739.24" />
            </Array>
          </mxGeometry>
        </mxCell>
        <mxCell id="NcC6NG_0m3Hqj47DifXg-102" value="Tabella Offerte" style="rounded=0;whiteSpace=wrap;html=1;fillColor=#ffe6cc;strokeColor=#d79b00;" parent="1" vertex="1">
          <mxGeometry x="1792.4700000000003" y="744.21" width="120" height="60" as="geometry" />
        </mxCell>
        <mxCell id="NcC6NG_0m3Hqj47DifXg-42" value="Modifica " style="text;strokeColor=none;fillColor=none;align=left;verticalAlign=middle;spacingLeft=4;spacingRight=4;overflow=hidden;points=[[0,0.5],[1,0.5]];portConstraint=eastwest;rotatable=0;whiteSpace=wrap;html=1;fontColor=#0080FF;" parent="1" vertex="1">
          <mxGeometry x="1503" y="744.4300000000001" width="60" height="30" as="geometry" />
        </mxCell>
        <mxCell id="NcC6NG_0m3Hqj47DifXg-107" value="&lt;font color=&quot;#0080ff&quot;&gt;Crea/Modifica/Cancella&lt;/font&gt;" style="text;html=1;align=center;verticalAlign=middle;resizable=0;points=[];autosize=1;strokeColor=none;fillColor=none;" parent="1" vertex="1">
          <mxGeometry x="1777.47" y="804.21" width="150" height="30" as="geometry" />
        </mxCell>
        <mxCell id="NU3KpsRYySIQvtl1-evu-32" value="&lt;div&gt;Promozioni&lt;/div&gt;" style="text;strokeColor=none;fillColor=none;align=left;verticalAlign=middle;spacingLeft=4;spacingRight=4;overflow=hidden;points=[[0,0.5],[1,0.5]];portConstraint=eastwest;rotatable=0;whiteSpace=wrap;html=1;fontColor=#0080FF;" parent="1" vertex="1">
          <mxGeometry x="1815" y="697.75" width="74.94" height="15" as="geometry" />
        </mxCell>
        <mxCell id="NU3KpsRYySIQvtl1-evu-33" value="Utenti" style="text;strokeColor=none;fillColor=none;align=left;verticalAlign=middle;spacingLeft=4;spacingRight=4;overflow=hidden;points=[[0,0.5],[1,0.5]];portConstraint=eastwest;rotatable=0;whiteSpace=wrap;html=1;fontColor=#0080FF;" parent="1" vertex="1">
          <mxGeometry x="1774" y="443.48" width="44" height="19" as="geometry" />
        </mxCell>
        <mxCell id="NU3KpsRYySIQvtl1-evu-36" value="FAQ" style="text;strokeColor=none;fillColor=none;align=left;verticalAlign=middle;spacingLeft=4;spacingRight=4;overflow=hidden;points=[[0,0.5],[1,0.5]];portConstraint=eastwest;rotatable=0;whiteSpace=wrap;html=1;fontColor=#0080FF;" parent="1" vertex="1">
          <mxGeometry x="2028.5" y="447.75" width="35" height="19" as="geometry" />
        </mxCell>
        <mxCell id="xmaxloxNV0D03TmDlJwd-2" value="" style="endArrow=none;html=1;rounded=0;edgeStyle=orthogonalEdgeStyle;" parent="1" source="NcC6NG_0m3Hqj47DifXg-51" target="xmaxloxNV0D03TmDlJwd-1" edge="1">
          <mxGeometry width="50" height="50" relative="1" as="geometry">
            <mxPoint x="1802" y="545.97" as="sourcePoint" />
            <mxPoint x="1909" y="535.97" as="targetPoint" />
            <Array as="points">
              <mxPoint x="1828" y="575.01" />
              <mxPoint x="1909" y="575.01" />
            </Array>
          </mxGeometry>
        </mxCell>
        <mxCell id="xmaxloxNV0D03TmDlJwd-1" value="&lt;div&gt;&lt;font color=&quot;#ff0808&quot;&gt;Su utente LV.1&lt;/font&gt;&lt;/div&gt;" style="text;html=1;align=center;verticalAlign=middle;resizable=0;points=[];autosize=1;strokeColor=none;fillColor=none;" parent="1" vertex="1">
          <mxGeometry x="1859" y="535.95" width="100" height="30" as="geometry" />
        </mxCell>
        <mxCell id="xmaxloxNV0D03TmDlJwd-3" value="" style="endArrow=none;html=1;rounded=0;" parent="1" source="xmaxloxNV0D03TmDlJwd-1" target="NcC6NG_0m3Hqj47DifXg-68" edge="1">
          <mxGeometry width="50" height="50" relative="1" as="geometry">
            <mxPoint x="1818" y="525.97" as="sourcePoint" />
            <mxPoint x="1868" y="475.97" as="targetPoint" />
          </mxGeometry>
        </mxCell>
        <mxCell id="xmaxloxNV0D03TmDlJwd-4" value="" style="endArrow=classic;html=1;rounded=0;edgeStyle=orthogonalEdgeStyle;" parent="1" target="NcC6NG_0m3Hqj47DifXg-51" edge="1">
          <mxGeometry width="50" height="50" relative="1" as="geometry">
            <mxPoint x="1673.02" y="490.21000000000004" as="sourcePoint" />
            <mxPoint x="1712.0222222222224" y="485.95000000000005" as="targetPoint" />
            <Array as="points">
              <mxPoint x="1673" y="465.26" />
              <mxPoint x="1758" y="465.26" />
            </Array>
          </mxGeometry>
        </mxCell>
        <mxCell id="xmaxloxNV0D03TmDlJwd-5" value="Crea/Modifica/Cancella" style="text;strokeColor=none;fillColor=none;align=left;verticalAlign=middle;spacingLeft=4;spacingRight=4;overflow=hidden;points=[[0,0.5],[1,0.5]];portConstraint=eastwest;rotatable=0;whiteSpace=wrap;html=1;fontColor=#0080FF;" parent="1" vertex="1">
          <mxGeometry x="1623" y="490.21000000000004" width="150" height="30" as="geometry" />
        </mxCell>
        <mxCell id="xmaxloxNV0D03TmDlJwd-6" value="" style="endArrow=none;html=1;rounded=0;edgeStyle=orthogonalEdgeStyle;" parent="1" source="NcC6NG_0m3Hqj47DifXg-51" target="xmaxloxNV0D03TmDlJwd-7" edge="1">
          <mxGeometry width="50" height="50" relative="1" as="geometry">
            <mxPoint x="1648" y="545.97" as="sourcePoint" />
            <mxPoint x="1709" y="535.97" as="targetPoint" />
            <Array as="points">
              <mxPoint x="1758" y="575.47" />
              <mxPoint x="1673" y="575.47" />
            </Array>
          </mxGeometry>
        </mxCell>
        <mxCell id="xmaxloxNV0D03TmDlJwd-7" value="&lt;div&gt;&lt;font color=&quot;#ff0808&quot;&gt;Su utente LV.2&lt;/font&gt;&lt;/div&gt;" style="text;html=1;align=center;verticalAlign=middle;resizable=0;points=[];autosize=1;strokeColor=none;fillColor=none;" parent="1" vertex="1">
          <mxGeometry x="1623" y="535.95" width="100" height="30" as="geometry" />
        </mxCell>
        <mxCell id="x5rS0_3Lqx_gbtH3I0sM-1" value="Casella base" style="rounded=0;whiteSpace=wrap;html=1;fillColor=#fff2cc;strokeColor=#d6b656;" parent="1" vertex="1">
          <mxGeometry x="1360" y="150" width="120" height="60" as="geometry" />
        </mxCell>
        <mxCell id="x5rS0_3Lqx_gbtH3I0sM-2" value="Casella con Header e footer" style="rounded=0;whiteSpace=wrap;html=1;fillColor=#ffe6cc;strokeColor=#d79b00;" parent="1" vertex="1">
          <mxGeometry x="1520" y="150" width="120" height="60" as="geometry" />
        </mxCell>
        <mxCell id="XJQiXxoaYYZwPCxTb3zh-2" value="" style="endArrow=classic;html=1;rounded=0;" edge="1" parent="1" source="NcC6NG_0m3Hqj47DifXg-1" target="NcC6NG_0m3Hqj47DifXg-14">
          <mxGeometry width="50" height="50" relative="1" as="geometry">
            <mxPoint x="1480" y="500" as="sourcePoint" />
            <mxPoint x="1530" y="450" as="targetPoint" />
          </mxGeometry>
        </mxCell>
        <mxCell id="XJQiXxoaYYZwPCxTb3zh-3" value="" style="endArrow=classic;html=1;rounded=0;" edge="1" parent="1" source="NcC6NG_0m3Hqj47DifXg-14" target="NcC6NG_0m3Hqj47DifXg-135">
          <mxGeometry width="50" height="50" relative="1" as="geometry">
            <mxPoint x="1480" y="500" as="sourcePoint" />
            <mxPoint x="1530" y="450" as="targetPoint" />
          </mxGeometry>
        </mxCell>
        <mxCell id="XJQiXxoaYYZwPCxTb3zh-7" value="" style="edgeStyle=segmentEdgeStyle;endArrow=classic;html=1;curved=0;rounded=0;endSize=8;startSize=8;sourcePerimeterSpacing=0;targetPerimeterSpacing=0;" edge="1" parent="1" source="NcC6NG_0m3Hqj47DifXg-135" target="8zPGC6kLLm4aPPDFNiIK-15">
          <mxGeometry width="100" relative="1" as="geometry">
            <mxPoint x="1500" y="520" as="sourcePoint" />
            <mxPoint x="1600" y="560" as="targetPoint" />
            <Array as="points">
              <mxPoint x="910" y="650" />
            </Array>
          </mxGeometry>
        </mxCell>
        <mxCell id="XJQiXxoaYYZwPCxTb3zh-8" value="" style="endArrow=none;html=1;rounded=0;" edge="1" parent="1" source="8zPGC6kLLm4aPPDFNiIK-27" target="NcC6NG_0m3Hqj47DifXg-34">
          <mxGeometry width="50" height="50" relative="1" as="geometry">
            <mxPoint x="1510" y="595" as="sourcePoint" />
            <mxPoint x="1560" y="545" as="targetPoint" />
          </mxGeometry>
        </mxCell>
        <mxCell id="XJQiXxoaYYZwPCxTb3zh-14" value="" style="endArrow=classic;html=1;rounded=0;" edge="1" parent="1" source="NU3KpsRYySIQvtl1-evu-32" target="NcC6NG_0m3Hqj47DifXg-102">
          <mxGeometry width="50" height="50" relative="1" as="geometry">
            <mxPoint x="1852.504588744589" y="726.27" as="sourcePoint" />
            <mxPoint x="1949.9700000000003" y="756.24" as="targetPoint" />
          </mxGeometry>
        </mxCell>
        <mxCell id="XJQiXxoaYYZwPCxTb3zh-15" value="" style="edgeStyle=segmentEdgeStyle;endArrow=classic;html=1;curved=0;rounded=0;endSize=8;startSize=8;sourcePerimeterSpacing=0;targetPerimeterSpacing=0;" edge="1" parent="1" source="NcC6NG_0m3Hqj47DifXg-102" target="NcC6NG_0m3Hqj47DifXg-107">
          <mxGeometry width="100" relative="1" as="geometry">
            <mxPoint x="1659" y="786.24" as="sourcePoint" />
            <mxPoint x="1759" y="826.24" as="targetPoint" />
            <Array as="points">
              <mxPoint x="1759" y="776" />
              <mxPoint x="1759" y="820" />
            </Array>
          </mxGeometry>
        </mxCell>
        <mxCell id="XJQiXxoaYYZwPCxTb3zh-16" value="" style="edgeStyle=segmentEdgeStyle;endArrow=classic;html=1;curved=0;rounded=0;endSize=8;startSize=8;sourcePerimeterSpacing=0;targetPerimeterSpacing=0;" edge="1" parent="1" source="NcC6NG_0m3Hqj47DifXg-107" target="NcC6NG_0m3Hqj47DifXg-102">
          <mxGeometry width="100" relative="1" as="geometry">
            <mxPoint x="1909" y="886.24" as="sourcePoint" />
            <mxPoint x="2009" y="926.24" as="targetPoint" />
            <Array as="points">
              <mxPoint x="1939" y="819" />
              <mxPoint x="1939" y="776" />
            </Array>
          </mxGeometry>
        </mxCell>
        <mxCell id="XJQiXxoaYYZwPCxTb3zh-19" value="" style="edgeStyle=segmentEdgeStyle;endArrow=none;html=1;curved=0;rounded=0;endSize=8;startSize=8;sourcePerimeterSpacing=0;targetPerimeterSpacing=0;" edge="1" parent="1" source="NcC6NG_0m3Hqj47DifXg-50" target="NU3KpsRYySIQvtl1-evu-33">
          <mxGeometry width="100" relative="1" as="geometry">
            <mxPoint x="1826" y="445" as="sourcePoint" />
            <mxPoint x="1728" y="475" as="targetPoint" />
            <Array as="points">
              <mxPoint x="1796" y="430" />
            </Array>
          </mxGeometry>
        </mxCell>
        <mxCell id="XJQiXxoaYYZwPCxTb3zh-20" value="" style="endArrow=classic;html=1;rounded=0;" edge="1" parent="1" source="NU3KpsRYySIQvtl1-evu-33" target="NcC6NG_0m3Hqj47DifXg-51">
          <mxGeometry width="50" height="50" relative="1" as="geometry">
            <mxPoint x="1768" y="450.48" as="sourcePoint" />
            <mxPoint x="1818" y="400.48" as="targetPoint" />
            <Array as="points" />
          </mxGeometry>
        </mxCell>
        <mxCell id="XJQiXxoaYYZwPCxTb3zh-25" value="" style="edgeStyle=segmentEdgeStyle;endArrow=none;html=1;curved=0;rounded=0;endSize=8;startSize=8;sourcePerimeterSpacing=0;targetPerimeterSpacing=0;" edge="1" parent="1" source="NcC6NG_0m3Hqj47DifXg-45" target="NU3KpsRYySIQvtl1-evu-32">
          <mxGeometry width="100" relative="1" as="geometry">
            <mxPoint x="1723.98" y="721.27" as="sourcePoint" />
            <mxPoint x="1823.98" y="761.27" as="targetPoint" />
            <Array as="points">
              <mxPoint x="1851.98" y="681.27" />
            </Array>
          </mxGeometry>
        </mxCell>
        <mxCell id="XJQiXxoaYYZwPCxTb3zh-26" value="" style="edgeStyle=segmentEdgeStyle;endArrow=none;html=1;curved=0;rounded=0;endSize=8;startSize=8;sourcePerimeterSpacing=0;targetPerimeterSpacing=0;" edge="1" parent="1" source="8zPGC6kLLm4aPPDFNiIK-16" target="NcC6NG_0m3Hqj47DifXg-1">
          <mxGeometry width="100" relative="1" as="geometry">
            <mxPoint x="690" y="410" as="sourcePoint" />
            <mxPoint x="790" y="450" as="targetPoint" />
            <Array as="points">
              <mxPoint x="910" y="350" />
            </Array>
          </mxGeometry>
        </mxCell>
        <mxCell id="XJQiXxoaYYZwPCxTb3zh-27" value="" style="edgeStyle=segmentEdgeStyle;endArrow=none;html=1;curved=0;rounded=0;endSize=8;startSize=8;sourcePerimeterSpacing=0;targetPerimeterSpacing=0;" edge="1" parent="1" source="8zPGC6kLLm4aPPDFNiIK-16" target="NcC6NG_0m3Hqj47DifXg-36">
          <mxGeometry width="100" relative="1" as="geometry">
            <mxPoint x="1030" y="390" as="sourcePoint" />
            <mxPoint x="1130" y="430" as="targetPoint" />
            <Array as="points">
              <mxPoint x="1020" y="390" />
              <mxPoint x="1020" y="390" />
            </Array>
          </mxGeometry>
        </mxCell>
        <mxCell id="XJQiXxoaYYZwPCxTb3zh-29" value="" style="edgeStyle=segmentEdgeStyle;endArrow=classic;html=1;curved=0;rounded=0;endSize=8;startSize=8;sourcePerimeterSpacing=0;targetPerimeterSpacing=0;" edge="1" parent="1" source="NcC6NG_0m3Hqj47DifXg-36" target="8zPGC6kLLm4aPPDFNiIK-17">
          <mxGeometry width="100" relative="1" as="geometry">
            <mxPoint x="1060" y="400" as="sourcePoint" />
            <mxPoint x="1160" y="440" as="targetPoint" />
            <Array as="points">
              <mxPoint x="1020" y="430" />
              <mxPoint x="1020" y="430" />
            </Array>
          </mxGeometry>
        </mxCell>
        <mxCell id="XJQiXxoaYYZwPCxTb3zh-30" value="" style="edgeStyle=segmentEdgeStyle;endArrow=none;html=1;curved=0;rounded=0;endSize=8;startSize=8;sourcePerimeterSpacing=0;targetPerimeterSpacing=0;" edge="1" parent="1" source="8zPGC6kLLm4aPPDFNiIK-1" target="NcC6NG_0m3Hqj47DifXg-10">
          <mxGeometry width="100" relative="1" as="geometry">
            <mxPoint x="1470" y="350" as="sourcePoint" />
            <mxPoint x="1570" y="390" as="targetPoint" />
            <Array as="points">
              <mxPoint x="1590" y="330" />
              <mxPoint x="1590" y="330" />
            </Array>
          </mxGeometry>
        </mxCell>
        <mxCell id="XJQiXxoaYYZwPCxTb3zh-31" value="" style="edgeStyle=segmentEdgeStyle;endArrow=none;html=1;curved=0;rounded=0;endSize=8;startSize=8;sourcePerimeterSpacing=0;targetPerimeterSpacing=0;" edge="1" parent="1" source="8zPGC6kLLm4aPPDFNiIK-1" target="NcC6NG_0m3Hqj47DifXg-13">
          <mxGeometry width="100" relative="1" as="geometry">
            <mxPoint x="1700" y="260" as="sourcePoint" />
            <mxPoint x="1800" y="300" as="targetPoint" />
            <Array as="points" />
          </mxGeometry>
        </mxCell>
        <mxCell id="XJQiXxoaYYZwPCxTb3zh-32" value="" style="edgeStyle=segmentEdgeStyle;endArrow=classic;html=1;curved=0;rounded=0;endSize=8;startSize=8;sourcePerimeterSpacing=0;targetPerimeterSpacing=0;" edge="1" parent="1" source="NcC6NG_0m3Hqj47DifXg-13" target="8zPGC6kLLm4aPPDFNiIK-20">
          <mxGeometry width="100" relative="1" as="geometry">
            <mxPoint x="1940" y="300" as="sourcePoint" />
            <mxPoint x="2040" y="340" as="targetPoint" />
            <Array as="points">
              <mxPoint x="1850" y="280" />
            </Array>
          </mxGeometry>
        </mxCell>
        <mxCell id="XJQiXxoaYYZwPCxTb3zh-34" value="&lt;font color=&quot;#0080ff&quot;&gt;Crea/Modifica/Cancella&lt;/font&gt;" style="text;html=1;align=center;verticalAlign=middle;resizable=0;points=[];autosize=1;strokeColor=none;fillColor=none;" vertex="1" parent="1">
          <mxGeometry x="1973" y="550.98" width="150" height="30" as="geometry" />
        </mxCell>
        <mxCell id="XJQiXxoaYYZwPCxTb3zh-35" value="" style="edgeStyle=segmentEdgeStyle;endArrow=classic;html=1;curved=0;rounded=0;endSize=8;startSize=8;sourcePerimeterSpacing=0;targetPerimeterSpacing=0;" edge="1" parent="1" target="XJQiXxoaYYZwPCxTb3zh-34" source="NcC6NG_0m3Hqj47DifXg-131">
          <mxGeometry width="100" relative="1" as="geometry">
            <mxPoint x="2002" y="582.27" as="sourcePoint" />
            <mxPoint x="1969.02" y="632.24" as="targetPoint" />
            <Array as="points">
              <mxPoint x="1959" y="522" />
              <mxPoint x="1959" y="566" />
            </Array>
          </mxGeometry>
        </mxCell>
        <mxCell id="XJQiXxoaYYZwPCxTb3zh-36" value="" style="edgeStyle=segmentEdgeStyle;endArrow=classic;html=1;curved=0;rounded=0;endSize=8;startSize=8;sourcePerimeterSpacing=0;targetPerimeterSpacing=0;" edge="1" parent="1" source="XJQiXxoaYYZwPCxTb3zh-34" target="NcC6NG_0m3Hqj47DifXg-131">
          <mxGeometry width="100" relative="1" as="geometry">
            <mxPoint x="2119.02" y="692.24" as="sourcePoint" />
            <mxPoint x="2122" y="582.27" as="targetPoint" />
            <Array as="points">
              <mxPoint x="2149" y="566" />
              <mxPoint x="2149" y="520" />
            </Array>
          </mxGeometry>
        </mxCell>
        <mxCell id="XJQiXxoaYYZwPCxTb3zh-41" value="" style="edgeStyle=segmentEdgeStyle;endArrow=none;html=1;curved=0;rounded=0;endSize=8;startSize=8;sourcePerimeterSpacing=0;targetPerimeterSpacing=0;" edge="1" parent="1" source="NcC6NG_0m3Hqj47DifXg-50" target="NcC6NG_0m3Hqj47DifXg-120">
          <mxGeometry width="100" relative="1" as="geometry">
            <mxPoint x="2111" y="410" as="sourcePoint" />
            <mxPoint x="2211" y="450" as="targetPoint" />
            <Array as="points">
              <mxPoint x="2241" y="410" />
            </Array>
          </mxGeometry>
        </mxCell>
        <mxCell id="XJQiXxoaYYZwPCxTb3zh-42" value="" style="edgeStyle=segmentEdgeStyle;endArrow=none;html=1;curved=0;rounded=0;endSize=8;startSize=8;sourcePerimeterSpacing=0;targetPerimeterSpacing=0;" edge="1" parent="1" source="8zPGC6kLLm4aPPDFNiIK-19" target="NcC6NG_0m3Hqj47DifXg-31">
          <mxGeometry width="100" relative="1" as="geometry">
            <mxPoint x="1393" y="390" as="sourcePoint" />
            <mxPoint x="1493" y="430" as="targetPoint" />
            <Array as="points">
              <mxPoint x="1383" y="430" />
              <mxPoint x="1383" y="430" />
            </Array>
          </mxGeometry>
        </mxCell>
        <mxCell id="XJQiXxoaYYZwPCxTb3zh-43" value="" style="edgeStyle=segmentEdgeStyle;endArrow=classic;html=1;curved=0;rounded=0;endSize=8;startSize=8;sourcePerimeterSpacing=0;targetPerimeterSpacing=0;" edge="1" parent="1" source="NcC6NG_0m3Hqj47DifXg-31" target="8zPGC6kLLm4aPPDFNiIK-19">
          <mxGeometry width="100" relative="1" as="geometry">
            <mxPoint x="1463" y="380" as="sourcePoint" />
            <mxPoint x="1563" y="420" as="targetPoint" />
            <Array as="points">
              <mxPoint x="1384" y="360" />
              <mxPoint x="1343" y="360" />
            </Array>
          </mxGeometry>
        </mxCell>
        <mxCell id="XJQiXxoaYYZwPCxTb3zh-44" value="" style="edgeStyle=segmentEdgeStyle;endArrow=none;html=1;curved=0;rounded=0;endSize=8;startSize=8;sourcePerimeterSpacing=0;targetPerimeterSpacing=0;" edge="1" parent="1" source="xmaxloxNV0D03TmDlJwd-7">
          <mxGeometry width="100" relative="1" as="geometry">
            <mxPoint x="1553" y="573.26" as="sourcePoint" />
            <mxPoint x="1673" y="520.21" as="targetPoint" />
            <Array as="points">
              <mxPoint x="1665" y="543.26" />
              <mxPoint x="1665" y="543.26" />
            </Array>
          </mxGeometry>
        </mxCell>
        <mxCell id="XJQiXxoaYYZwPCxTb3zh-54" value="" style="edgeStyle=segmentEdgeStyle;endArrow=none;html=1;curved=0;rounded=0;endSize=8;startSize=8;sourcePerimeterSpacing=0;targetPerimeterSpacing=0;" edge="1" parent="1" source="8zPGC6kLLm4aPPDFNiIK-26" target="NcC6NG_0m3Hqj47DifXg-42">
          <mxGeometry width="100" relative="1" as="geometry">
            <mxPoint x="1581" y="786.74" as="sourcePoint" />
            <mxPoint x="1681" y="826.74" as="targetPoint" />
            <Array as="points">
              <mxPoint x="1533" y="736.74" />
              <mxPoint x="1533" y="736.74" />
            </Array>
          </mxGeometry>
        </mxCell>
        <mxCell id="XJQiXxoaYYZwPCxTb3zh-55" value="" style="edgeStyle=segmentEdgeStyle;endArrow=classic;html=1;curved=0;rounded=0;endSize=8;startSize=8;sourcePerimeterSpacing=0;targetPerimeterSpacing=0;" edge="1" parent="1" source="NcC6NG_0m3Hqj47DifXg-42" target="NcC6NG_0m3Hqj47DifXg-40">
          <mxGeometry width="100" relative="1" as="geometry">
            <mxPoint x="1501" y="796.74" as="sourcePoint" />
            <mxPoint x="1601" y="836.74" as="targetPoint" />
            <Array as="points" />
          </mxGeometry>
        </mxCell>
        <mxCell id="XJQiXxoaYYZwPCxTb3zh-56" value="" style="edgeStyle=segmentEdgeStyle;endArrow=classic;html=1;curved=0;rounded=0;endSize=8;startSize=8;sourcePerimeterSpacing=0;targetPerimeterSpacing=0;" edge="1" parent="1" source="NcC6NG_0m3Hqj47DifXg-27" target="8zPGC6kLLm4aPPDFNiIK-26">
          <mxGeometry width="100" relative="1" as="geometry">
            <mxPoint x="1653" y="660" as="sourcePoint" />
            <mxPoint x="1753" y="700" as="targetPoint" />
            <Array as="points">
              <mxPoint x="1533" y="610" />
              <mxPoint x="1533" y="610" />
            </Array>
          </mxGeometry>
        </mxCell>
        <mxCell id="XJQiXxoaYYZwPCxTb3zh-57" value="" style="edgeStyle=segmentEdgeStyle;endArrow=classic;html=1;curved=0;rounded=0;endSize=8;startSize=8;sourcePerimeterSpacing=0;targetPerimeterSpacing=0;" edge="1" parent="1" source="NcC6NG_0m3Hqj47DifXg-27" target="NcC6NG_0m3Hqj47DifXg-45">
          <mxGeometry width="100" relative="1" as="geometry">
            <mxPoint x="1563" y="570" as="sourcePoint" />
            <mxPoint x="1663" y="610" as="targetPoint" />
            <Array as="points">
              <mxPoint x="1613" y="559" />
              <mxPoint x="1613" y="630" />
              <mxPoint x="1680" y="630" />
            </Array>
          </mxGeometry>
        </mxCell>
        <mxCell id="XJQiXxoaYYZwPCxTb3zh-58" value="" style="edgeStyle=segmentEdgeStyle;endArrow=classic;html=1;curved=0;rounded=0;endSize=8;startSize=8;sourcePerimeterSpacing=0;targetPerimeterSpacing=0;" edge="1" parent="1" source="NcC6NG_0m3Hqj47DifXg-27" target="NcC6NG_0m3Hqj47DifXg-50">
          <mxGeometry width="100" relative="1" as="geometry">
            <mxPoint x="1513" y="460" as="sourcePoint" />
            <mxPoint x="1613" y="500" as="targetPoint" />
            <Array as="points">
              <mxPoint x="1533" y="400" />
            </Array>
          </mxGeometry>
        </mxCell>
      </root>
    </mxGraphModel>
  </diagram>
</mxfile>
